# xmcd
#
# Track frame offsets: 
#        150
#        11669
#        26962
#        39302
#        53922
#        64841
#        72717
#        84054
#        96336
#        108779
#        119268
#
# Disc length: 1762 seconds
#
# Revision: 0
# Processed by: cddbd v1.5.2PL0 Copyright (c) Steve Scherf et al.
# Submitted via: ExactAudioCopy v1.0b3
#
DISCID=8f06e00b
DTITLE=Johnny Cash - Icon
DYEAR=2014
DGENRE=Country
TTITLE0=I Walk the Line
TTITLE1=The Night Hank Williams Came to Town
TTITLE2=Sixteen Tons
TTITLE3=Long Black Veil
TTITLE4=Cry! Cry! Cry!
TTITLE5=Guess Things Happen That Way
TTITLE6=Get Rhythm
TTITLE7=Ring of Fire
TTITLE8=Folsom Prison Blues
TTITLE9=Hey Porter
TTITLE10=Wanted Man
EXTD=
EXTT0=
EXTT1=
EXTT2=
EXTT3=
EXTT4=
EXTT5=
EXTT6=
EXTT7=
EXTT8=
EXTT9=
EXTT10=
PLAYORDER=
